<?xml version="1.0" encoding="utf-8"?>
<!-- Generator: Adobe Illustrator 26.0.3, SVG Export Plug-In . SVG Version: 6.00 Build 0)  -->
<svg version="1.1" id="Layer_1" xmlns="http://www.w3.org/2000/svg" xmlns:xlink="http://www.w3.org/1999/xlink" x="0px" y="0px"
	 viewBox="0 0 173 164" style="enable-background:new 0 0 173 164;" xml:space="preserve">
<style type="text/css">
	.st0{fill:#65B846;}
	.st1{fill:#FFFFFF;}
</style>
<path class="st0" d="M100.1,85.4c0,0-5.4,8.9-4.7,16.6c0,0-21.8,9.2-34.5-17.4c-3.4-7-5.1-14.6-5.4-22.4c-0.6-15.1,2-42,27.5-47.8
	c0,0,34.8-7.9,35.2,49.2l-39.1,0.7l7.8-11.1l22.4-0.7c0,0,1.1-18.7-14-24.4c0,0-20.4-8.2-28.7,20.8c0,0-5.3,19.3,8.3,36.9
	C74.8,85.8,83.1,97.4,100.1,85.4z"/>
<path class="st1" d="M142.3,81.5c0,0,6.6-11.1,5.5-9.3c0,0-24.5-24-44.9,13.2c-3.7,6.8-5.1,14.6-5.4,22.4c-0.6,15.1,2,42,27.5,47.8
	c0,0,34.8,7.9,35.2-49.2l-39.1-0.7l7.8,11.1l22.4,0.7c0,0,1.1,18.7-14,24.4c0,0-20.4,8.2-28.7-20.8c0,0-5.3-19.3,8.3-36.9
	C116.8,84.2,125.3,69.4,142.3,81.5z"/>
<path class="st0" d="M20.8,12.6l5,8.3h38.6c2.9-3.1,6.6-5.6,11.2-7.4v-0.9H20.8z"/>
<path class="st0" d="M28.4,25.1l5,8.3h23.3c1.1-2.9,2.5-5.7,4.2-8.3H28.4z"/>
<path class="st0" d="M35.4,36.6l5,8.3h13.4c0.4-2.7,1-5.5,1.8-8.3H35.4z"/>
<path class="st0" d="M53.4,49H43l5,8.3h5C53.1,54.8,53.2,52,53.4,49z"/>
</svg>
