<svg id="Layer_1" data-name="Layer 1" xmlns="http://www.w3.org/2000/svg" viewBox="0 0 551.85 118.91"><defs><style>.cls-1{fill:#65b846;}.cls-2{fill:#006838;}.cls-3{fill:#39b54a;}.cls-4{font-size:28px;fill:#221f1f;font-family:ArquitectaMedium, Arquitecta;}.cls-5{letter-spacing:-0.01em;}.cls-6{letter-spacing:-0.01em;}.cls-7{letter-spacing:-0.01em;}.cls-8{letter-spacing:0em;}.cls-9{letter-spacing:-0.02em;}.cls-10{letter-spacing:-0.01em;}.cls-11{letter-spacing:0em;}.cls-12{letter-spacing:-0.02em;}.cls-13{fill:#313a53;}.cls-14,.cls-15{font-size:60px;font-family:Arial-BoldItalicMT, Arial;font-weight:700;font-style:italic;}.cls-14{fill:#64b646;}.cls-15{fill:#231f20;}.cls-16{letter-spacing:-0.02em;}</style></defs><path class="cls-1" d="M20.87,29.55l9,14.34H70.74a53.27,53.27,0,0,1,7.82-14.34Z" transform="translate(-8.08 -7.55)"/><path class="cls-1" d="M8.08,7.9V9.18l8.19,13.05H85.39a58.48,58.48,0,0,1,17.8-10.76V7.9Z" transform="translate(-8.08 -7.55)"/><path class="cls-1" d="M33.4,49.5l9,14.34H67.31A61.55,61.55,0,0,1,69.05,49.5Z" transform="translate(-8.08 -7.55)"/><path class="cls-1" d="M56,85.5H71.2a57.41,57.41,0,0,1-3.5-14.34H47Z" transform="translate(-8.08 -7.55)"/><path class="cls-2" d="M133.51,114.61c-27.06,0-43.76-20.71-43.76-52.95,0-27.56,14.53-47.93,42.09-47.93,6.35,0,13.2,1.16,17.54,3.17,5.49,2.26,9.11,5.92,11.88,11.23h7.85c-.77-5.88-1.42-11.84-1.86-16.74-5.51-.84-17.2-3.84-31.56-3.84-37.42,0-63.31,23.55-63.31,57.62,0,29.23,20.38,55.79,60.3,55.79,11.94,0,24.18-2.66,29.62-3.81V99C155.25,109.56,147.17,114.61,133.51,114.61Z" transform="translate(-8.08 -7.55)"/><polygon class="cls-3" points="164.17 67.42 119.42 67.42 119.42 80.49 164.17 80.49 164.17 118.91 177.24 118.91 177.24 80.49 177.24 67.42 164.17 67.42"/><path class="cls-3" d="M163.24,32.43l-2-1.3s-.58.89-1.61,2.18a38.12,38.12,0,0,1-7.21,7A22.16,22.16,0,0,1,147.55,43a13.94,13.94,0,0,1-5.11,1,12.51,12.51,0,0,1-3.63-.55,18.15,18.15,0,0,1-6.34-3.65A41.13,41.13,0,0,1,125,31.09l-8.49,5.62a57.34,57.34,0,0,0,6.21,7.91,33.16,33.16,0,0,0,9.77,7.32,23,23,0,0,0,10,2.3,23.58,23.58,0,0,0,6.14-.83,30.12,30.12,0,0,0,8.92-4.21,45.89,45.89,0,0,0,8.94-8.15,43.85,43.85,0,0,0,3.36-4.4Z" transform="translate(-8.08 -7.55)"/><polygon class="cls-3" points="161.03 23.59 153.16 23.59 161.72 29.1 161.03 23.59"/><text class="cls-4" transform="translate(267.03 93.55)"><tspan class="cls-5">I</tspan><tspan class="cls-6" x="6.72" y="0">n</tspan><tspan class="cls-7" x="19.24" y="0">v</tspan><tspan x="30.38" y="0">e</tspan><tspan class="cls-8" x="42.03" y="0">s</tspan><tspan x="52.58" y="0">t in</tspan><tspan class="cls-9" x="85.37" y="0"> </tspan><tspan class="cls-10" x="90.24" y="0">y</tspan><tspan class="cls-11" x="101.36" y="0">ou</tspan><tspan class="cls-12" x="126.59" y="0">r</tspan><tspan x="134.37" y="0" xml:space="preserve"> health</tspan></text><rect class="cls-13" x="209.98" y="85.28" width="46.23" height="1.13"/><rect class="cls-13" x="480.7" y="85.28" width="46.23" height="1.13"/><text class="cls-14" transform="translate(192.95 61.12)">Elite</text><text class="cls-15" transform="translate(327.14 61.12)">GMA<tspan class="cls-16" x="139.98" y="0">R</tspan><tspan x="182.23" y="0">T</tspan></text></svg>