<svg id="Layer_1" data-name="Layer 1" xmlns="http://www.w3.org/2000/svg" viewBox="0 0 177.24 118.91"><defs><style>.cls-1{fill:#65b846;}.cls-2{fill:#006838;}.cls-3{fill:#39b54a;}</style></defs><path class="cls-1" d="M21.68,42.05l9,14.34H71.54a53,53,0,0,1,7.83-14.34Z" transform="translate(-8.88 -20.05)"/><path class="cls-1" d="M8.88,20.4v1.28l8.2,13H86.19A58.48,58.48,0,0,1,104,24V20.4Z" transform="translate(-8.88 -20.05)"/><path class="cls-1" d="M34.2,62l9,14.34H68.12A61.55,61.55,0,0,1,69.85,62Z" transform="translate(-8.88 -20.05)"/><path class="cls-1" d="M56.8,98H72A57,57,0,0,1,68.5,83.66H47.8Z" transform="translate(-8.88 -20.05)"/><path class="cls-2" d="M134.32,127.11c-27.06,0-43.77-20.71-43.77-52.95,0-27.56,14.54-47.93,42.1-47.93,6.34,0,13.19,1.16,17.54,3.17,5.49,2.26,9.1,5.92,11.87,11.23h7.85c-.77-5.88-1.42-11.84-1.85-16.74-5.51-.84-17.21-3.84-31.57-3.84-37.42,0-63.31,23.55-63.31,57.62,0,29.23,20.38,55.79,60.3,55.79,12,0,24.19-2.66,29.63-3.81V111.46C156.05,122.06,148,127.11,134.32,127.11Z" transform="translate(-8.88 -20.05)"/><polygon class="cls-3" points="164.17 67.42 119.42 67.42 119.42 80.49 164.17 80.49 164.17 118.91 177.24 118.91 177.24 80.49 177.24 67.42 164.17 67.42"/><path class="cls-3" d="M169.91,43.63H162a26.49,26.49,0,0,1-1.6,2.18,38.43,38.43,0,0,1-7.21,7,22.22,22.22,0,0,1-4.88,2.72,13.93,13.93,0,0,1-5.1,1,12.58,12.58,0,0,1-3.64-.55,18.12,18.12,0,0,1-6.33-3.65,40.85,40.85,0,0,1-7.49-8.77l-8.49,5.62a57.34,57.34,0,0,0,6.21,7.91,33.29,33.29,0,0,0,9.77,7.32,23,23,0,0,0,10,2.3,23.57,23.57,0,0,0,6.13-.83,30,30,0,0,0,8.92-4.21,46,46,0,0,0,8.95-8.15,42.78,42.78,0,0,0,3.35-4.4Z" transform="translate(-8.88 -20.05)"/></svg>